<?xml version="1.0" encoding="UTF-8" standalone="no"?>
<svg
   xmlns:dc="http://purl.org/dc/elements/1.1/"
   xmlns:cc="http://creativecommons.org/ns#"
   xmlns:rdf="http://www.w3.org/1999/02/22-rdf-syntax-ns#"
   xmlns:svg="http://www.w3.org/2000/svg"
   xmlns="http://www.w3.org/2000/svg"
   xmlns:xlink="http://www.w3.org/1999/xlink"
   xmlns:sodipodi="http://sodipodi.sourceforge.net/DTD/sodipodi-0.dtd"
   xmlns:inkscape="http://www.inkscape.org/namespaces/inkscape"
   width="213.57788"
   height="73.783798"
   viewBox="0 0 213.57788 73.783798"
   version="1.1"
   id="svg31"
   sodipodi:docname="login_logo.svg"
   inkscape:version="0.92.1 r15371">
  <metadata
     id="metadata35">
    <rdf:RDF>
      <cc:Work
         rdf:about="">
        <dc:format>image/svg+xml</dc:format>
        <dc:type
           rdf:resource="http://purl.org/dc/dcmitype/StillImage" />
        <dc:title>login_logo</dc:title>
      </cc:Work>
    </rdf:RDF>
  </metadata>
  <sodipodi:namedview
     pagecolor="#ffffff"
     bordercolor="#666666"
     borderopacity="1"
     objecttolerance="10"
     gridtolerance="10"
     guidetolerance="10"
     inkscape:pageopacity="0"
     inkscape:pageshadow="2"
     inkscape:window-width="1920"
     inkscape:window-height="1018"
     id="namedview33"
     showgrid="false"
     showguides="false"
     inkscape:zoom="1.71"
     inkscape:cx="119.33416"
     inkscape:cy="23.949636"
     inkscape:window-x="0"
     inkscape:window-y="25"
     inkscape:window-maximized="1"
     inkscape:current-layer="Group-4"
     fit-margin-top="0"
     fit-margin-left="0"
     fit-margin-right="0"
     fit-margin-bottom="0" />
  <!-- Generator: Sketch 43.2 (39069) - http://www.bohemiancoding.com/sketch -->
  <title
     id="title2">login_logo</title>
  <desc
     id="desc4">Created with Sketch.</desc>
  <defs
     id="defs8">
    <polygon
       id="path-1"
       points="0.98776148,9.9050923 10.00389,9.9050923 10.00389,0.74947169 0.98776148,0.74947169 " />
    <polygon
       id="path-3"
       points="-0.084388205,9.8870967 -0.084388205,0.73752381 -7.4331902,0.73752381 -7.4331902,9.8870967 " />
  </defs>
  <g
     id="Symbols"
     style="fill:none;fill-rule:evenodd;stroke:none;stroke-width:1"
     transform="translate(0,-1)">
    <g
       id="login_logo">
      <g
         id="Group-4">
        <g
           id="Group"
           transform="translate(0,1)">
          <path
             d="M 52.757913,57.400499 38.624254,35.452171 51.780113,15.733456 c 2.453114,-3.701935 3.7851,-6.6611281 3.811285,-9.2046067 v -0.0097 -0.083143 -0.1489643 l -0.0028,-0.00762 c -0.05302,-1.6462299 -0.770345,-3.168437 -2.015507,-4.332437 -1.304423,-1.261 -3.061569,-1.89011429 -5.012346,-1.8915 -0.04066,-0.0020786 -0.06891,-0.0020786 -0.07304,-0.0020786 -1.087364,0 -2.096862,0.18776428 -2.997485,0.59585714 C 44.609577,1.0358779 43.804046,1.6331207 43.119104,2.4049636 42.470682,3.1220707 41.823639,3.9971493 41.153167,5.0489064 40.508191,6.0493921 39.740559,7.2501136 38.828221,8.669085 L 28.778032,23.929264 19.421055,8.6621564 C 17.495774,5.5207421 16.009435,3.3555636 14.808374,2.082785 13.501195,0.67004928 11.615191,-0.002715 9.4742285,7.4928384e-4 c -0.00896,0 -0.014471,-6.92857148e-4 -0.014471,-6.92857148e-4 C 7.5399893,-0.00687214 5.7911118,0.62432071 4.4239829,1.8617636 3.0782155,3.0458564 2.2816425,4.5798421 2.2816425,6.2413136 v 0.030486 0.032564 h 0.00138 c 0.00345,1.4556928 0.3472948,2.9508785 0.9964054,4.4523004 0.6470433,1.478557 1.5800536,3.198228 2.8231486,5.173564 L 18.607255,35.400899 3.6301662,57.323592 4.5666219,57.969335 3.6274099,57.324978 C 1.2831698,60.789264 0.01595717,63.793492 1.0839972e-4,66.498406 v 0.01247 C -0.00953868,68.676054 0.62441219,70.56894 2.0266839,71.865276 c 1.3051119,1.24645 3.0457205,1.86725 4.9579093,1.861014 h 0.00758 0.00827 0.1288574 l 0.00345,-6.93e-4 c 1.1528259,-0.01316 2.2105592,-0.205085 3.1511494,-0.600014 0.937145,-0.401857 1.770928,-0.951986 2.473786,-1.656621 0.638086,-0.638815 1.196927,-1.307422 1.666189,-2.006515 0.430673,-0.640893 1.145935,-1.741843 2.147853,-3.324328 l 11.895537,-18.186115 11.12377,17.656079 c 1.542154,2.3668 2.589552,3.960371 3.16562,4.800114 0.651178,0.951293 1.513213,1.753622 2.542694,2.379965 1.117683,0.679 2.447602,0.995635 3.916025,0.995635 h 0.0124 c 1.377465,0 2.669485,-0.30555 3.810596,-0.931893 1.135599,-0.624264 2.056206,-1.506271 2.690846,-2.595442 0.629127,-1.080165 0.959195,-2.300979 0.959195,-3.590386 0,-1.363543 -0.344538,-2.758957 -0.990892,-4.181393 -0.628439,-1.388486 -1.606928,-3.069357 -2.939603,-5.084186"
             id="Fill-3"
             inkscape:connector-curvature="0"
             style="fill:#e67c39" />
          <path
             d="m 70.521281,19.00018 v 6.93e-4 c -0.0076,-6.93e-4 -0.0124,-6.93e-4 -0.0124,-6.93e-4 -2.123735,-0.01386 -4.0311,0.773921 -5.394784,2.297514 -1.431902,1.573479 -2.063785,3.801707 -2.065853,6.5184 l -0.04823,36.787943 v 0.01178 0.02079 c -0.0021,2.678586 0.630505,4.911664 2.034155,6.53295 1.351281,1.599114 3.275873,2.436779 5.416835,2.425 l 0.472707,0.0014 0.01171,-0.01247 c 1.941819,-0.09977 3.685873,-0.896557 4.992363,-2.32315 1.482894,-1.603964 2.14303,-3.879307 2.145097,-6.623714 l 0.05099,-37.193957 v -0.0097 -0.02217 -0.03118 -6.93e-4 c -0.0048,-2.452714 -0.691834,-4.559693 -2.139584,-6.085364 -1.413987,-1.5132 -3.332377,-2.302364 -5.463003,-2.293357"
             id="Fill-5"
             inkscape:connector-curvature="0"
             style="fill:#e67c39" />
          <path
             d="M 75.753533,1.8700937 C 74.283732,0.64512231 72.520383,-0.00408483 70.617842,7.2313802e-5 h -0.0083 C 68.636745,-0.00824197 66.805178,0.70055088 65.328486,2.0460795 c -1.510456,1.3559214 -2.318744,3.2176285 -2.326324,5.28165 -0.0034,0.029793 -0.0021,0.044343 -6.89e-4,0.05335 v 0.016628 h 0.0034 c 0,0.00208 -0.0014,0.00554 -0.0034,0.0097 -0.01378,2.2316929 0.73938,4.1980225 2.290492,5.5206855 1.446373,1.276936 3.273116,1.93515 5.272129,1.937921 h 0.0014 0.0028 0.02756 l 0.270807,0.0021 0.01034,-0.0048 c 1.852239,-0.05196 3.554948,-0.717108 4.931035,-1.950393 1.51528,-1.339986 2.27671,-3.2827578 2.266374,-5.4943578 v -0.00693 -0.00624 c 6.89e-4,-0.038107 6.89e-4,-0.075521 0,-0.1143215 V 7.2778437 7.276458 C 78.059185,5.0655509 77.285351,3.1470295 75.753533,1.8700937"
             id="Fill-7"
             inkscape:connector-curvature="0"
             style="fill:#e67c39" />
          <path
             d="m 144.181,9.9800954 c 0.21499,-0.8771572 0.31146,-1.7162072 0.31421,-2.5005215 V 7.4657168 7.2592454 l -0.005,-0.0097 c -0.0379,-1.1452929 -0.39346,-2.2725715 -1.01087,-3.3368 -0.67254,-1.1660786 -1.63243,-2.1104429 -2.79904,-2.7970643 -1.17625,-0.69493572 -2.4855,-1.04898572 -3.85676,-1.05175715 h -0.008 -0.009 -0.0193 c -1.78678,-0.0027714 -3.35581,0.42957143 -4.54447,1.40788575 -1.05842,0.8570643 -1.85292,1.8741785 -2.3463,3.0125428 -0.43068,1.03305 -1.04395,2.7388643 -1.86671,5.2054357 L 113.44196,53.115995 99.0244,9.9856382 C 97.975625,6.7271311 96.955102,4.3263811 95.868427,2.7016311 94.63429,0.84754538 92.471277,-0.01436891 89.891373,1.8109001e-4 h -0.01171 C 87.695285,-0.01229034 85.721079,0.7824168 84.248521,2.3198668 82.798703,3.7838739 81.991794,5.5776811 82.000063,7.4975882 v 0.03395 c 0,0.7406643 0.112319,1.5700143 0.319732,2.5219998 0.221883,0.96515 0.48511,1.85755 0.79864,2.700757 0.289412,0.774615 0.571934,1.570015 0.85859,2.382043 l 16.300805,44.800143 c 0.58641,1.725907 1.18108,3.371443 1.77989,4.93245 0.61879,1.60535 1.34783,3.049264 2.1892,4.337286 0.89373,1.365621 2.08514,2.470728 3.53358,3.293843 1.49874,0.85845 3.29241,1.259614 5.31279,1.257535 h 0.0207 0.0227 v -6.93e-4 h 0.0317 6.8e-4 c 1.98799,-0.0048 3.76099,-0.408092 5.24664,-1.278321 1.4319,-0.823807 2.62056,-1.915057 3.50051,-3.245343 0.83447,-1.258228 1.55387,-2.699371 2.18299,-4.313728 0.60501,-1.578329 1.19555,-3.225943 1.80263,-4.964322 l 16.68944,-45.103614 c 0.27908,-0.828657 0.56987,-1.611586 0.84895,-2.3959 0.29561,-0.798171 0.54299,-1.628214 0.74076,-2.4755786"
             id="Fill-9"
             inkscape:connector-curvature="0"
             style="fill:#e67c39" />
          <path
             d="m 198.3351,36.702029 h -6.9e-4 z m -3.68932,13.313942 c -1.7034,3.5793 -3.9236,6.13525 -6.69576,7.796029 -2.81074,1.6781 -5.85578,2.513686 -9.22605,2.515764 h -0.0159 c -2.63296,-0.0028 -5.0213,-0.500935 -7.19259,-1.475093 -2.17403,-0.967228 -4.08416,-2.422228 -5.79169,-4.396871 -1.66894,-1.946236 -2.98715,-4.4329 -3.93532,-7.491864 -0.93094,-3.035407 -1.40709,-6.4505 -1.40709,-10.266065 v 0 -0.01455 l 0.002,-0.0291 c 0.007,-3.79755 0.49201,-7.193935 1.4326,-10.190542 0.95712,-3.014622 2.24019,-5.438929 3.82231,-7.29925 1.6021,-1.889422 3.48535,-3.304236 5.69384,-4.288786 2.20091,-0.97485 4.59959,-1.472322 7.22359,-1.472322 v -0.0021 c 3.77477,0.01524 6.98725,0.917343 9.80488,2.694521 2.81006,1.776486 4.96136,4.371929 6.51454,7.9152 1.53802,3.514865 2.31943,7.728822 2.31943,12.645336 0,0.03603 0.002,0.06097 0.003,0.07691 -0.0138,5.330843 -0.88201,9.757507 -2.55234,13.282764 z M 209.54983,17.427436 C 206.839,11.879729 202.80377,7.5452143 197.50683,4.5285143 192.20507,1.50835 185.89106,0.01108571 178.62267,0 h -0.0841 c -5.34173,0 -10.15907,0.83627857 -14.42376,2.5358571 -4.26677,1.7016572 -7.92025,4.1751572 -10.9205,7.4052572 -2.9899,3.2300997 -5.27006,7.1544427 -6.83219,11.7113647 -1.57041,4.556228 -2.34907,9.54965 -2.3594,14.961557 -0.003,0.0679 -6.9e-4,0.09908 -0.003,0.100464 0,5.256707 0.74145,10.171143 2.21469,14.741229 1.48979,4.595721 3.7162,8.5651 6.66751,11.870721 2.95821,3.31255 6.65166,5.8782 11.04453,7.681707 4.40182,1.812514 9.36042,2.712536 14.87097,2.721543 0.0531,-0.0021 0.0696,0 0.0689,6.93e-4 5.48298,0 10.40024,-0.865379 14.73798,-2.600293 4.34118,-1.758471 8.02912,-4.305414 11.02247,-7.640136 2.98922,-3.32225 5.23148,-7.246593 6.71575,-11.759864 1.48978,-4.496643 2.22847,-9.471357 2.23536,-14.915136 v -0.07414 l -0.003,-0.01317 c 0,-7.322114 -1.3251,-13.768457 -4.0249,-19.300228 z"
             id="Fill-11"
             inkscape:connector-curvature="0"
             style="fill:#e67c39" />
        </g>
        <g
           id="Group-2"
           transform="translate(223)">
          <mask
             id="mask-2"
             fill="white">
            <use
               xlink:href="#path-1"
               id="use17"
               x="0"
               y="0"
               width="100%"
               height="100%" />
          </mask>
          <g
             id="Clip-14" />
          <polygon
             id="Fill-13"
             mask="url(#mask-2)"
             points="2.7127331,2.6043441 4.6461298,9.896242 6.2836504,9.8991921 8.2615013,2.6117193 8.2498412,9.9021422 9.992303,9.9050923 10.003963,0.76053455 7.1348405,0.75684693 5.4885747,7.0582504 3.8619855,0.75242179 0.99942162,0.74947169 0.98776148,9.8940294 2.7047168,9.8947669 "
             style="fill:#e67c39" />
          <mask
             id="mask-4"
             fill="white">
            <use
               xlink:href="#path-3"
               id="use22"
               x="0"
               y="0"
               width="100%"
               height="100%" />
          </mask>
          <g
             id="Clip-17" />
          <polygon
             id="Fill-16"
             mask="url(#mask-4)"
             points="-0.084388205,0.74696411 -7.4295464,0.7373763 -7.4331902,2.3370654 -4.6296557,2.3400155 -4.6413159,9.8848841 -2.811403,9.8870967 -2.8019291,2.3407531 -0.084388205,2.3451782 "
             style="fill:#e67c39" />
        </g>
      </g>
    </g>
  </g>
</svg>
